<svg width="326" height="71" viewBox="0 0 326 71" fill="none" xmlns="http://www.w3.org/2000/svg">
<path d="M1.18945 8.38672H324.641V62.7484H1.18945V8.38672Z" fill="#089D94" fill-opacity="0.95"/>
<g style="mix-blend-mode:multiply">
<path d="M0 16.9204L323.203 -0.000215395L326 53.4181L2.7966 70.3388L0 16.9204Z" fill="#9A2E36"/>
</g>
<path d="M51.096 50.1669C48.3047 50.1669 46.311 49.4178 45.1147 47.9197C43.9184 46.3992 43.3203 44.1856 43.3203 41.2788L43.3203 31.0826C43.3203 28.1982 43.9184 26.0181 45.1147 24.5423C46.311 23.0666 48.3047 22.3287 51.096 22.3287C53.8651 22.3287 55.8478 23.0666 57.0441 24.5423C58.2404 26.0181 58.8385 28.1982 58.8385 31.0826L58.8385 41.2788C58.8385 44.1632 58.2293 46.3657 57.0109 47.8862C55.8146 49.4067 53.843 50.1669 51.096 50.1669ZM51.096 46.511C52.1815 46.511 52.9126 46.1645 53.2892 45.4713C53.6658 44.7781 53.8541 43.7719 53.8541 42.4527L53.8541 29.9423C53.8541 28.623 53.6658 27.628 53.2892 26.9572C52.9347 26.2864 52.2037 25.951 51.096 25.951C49.9884 25.951 49.2462 26.2976 48.8696 26.9908C48.493 27.6616 48.3047 28.6454 48.3047 29.9423L48.3047 42.4527C48.3047 43.7719 48.493 44.7781 48.8696 45.4713C49.2462 46.1645 49.9884 46.511 51.096 46.511Z" fill="white"/>
<path d="M70.1191 46.5781C69.1887 46.6452 68.6459 46.6787 68.4909 46.6787C66.4528 46.6787 64.8578 46.1197 63.7058 45.0017C62.576 43.8614 62.0111 42.1173 62.0111 39.7695L62.0111 32.2565C62.0111 29.9982 62.5871 28.2765 63.7391 27.0914C64.9132 25.9063 66.5193 25.3138 68.5573 25.3138C69.0668 25.3138 69.5874 25.3361 70.1191 25.3808V20.6182L74.4057 20.6182V25.3808C74.9374 25.3361 75.4358 25.3138 75.901 25.3138C77.9834 25.3138 79.6006 25.9063 80.7525 27.0914C81.9267 28.2765 82.5137 29.9982 82.5137 32.2565V39.7695C82.5137 42.0949 81.971 43.8278 80.8855 44.9682C79.8 46.1086 78.3711 46.6787 76.5989 46.6787C75.8678 46.6787 75.1368 46.6452 74.4057 46.5781L74.4057 50.8713L70.1191 50.8713L70.1191 46.5781ZM69.3216 43.6601C69.5874 43.6601 69.8533 43.6378 70.1191 43.5931L70.1191 28.3324C69.7204 28.2876 69.3991 28.2653 69.1555 28.2653C68.1807 28.2653 67.4718 28.5783 67.0288 29.2044C66.6079 29.8081 66.3974 30.8143 66.3974 32.223V39.803C66.3974 41.2341 66.5968 42.2403 66.9955 42.8216C67.3943 43.3806 68.1696 43.6601 69.3216 43.6601ZM75.3361 43.6601C76.3995 43.6601 77.1305 43.3806 77.5293 42.8216C77.9502 42.2403 78.1606 41.2453 78.1606 39.8366V32.223C78.1606 30.7696 77.9613 29.7522 77.5625 29.1709C77.1638 28.5671 76.4549 28.2653 75.4358 28.2653C75.1478 28.2653 74.8045 28.2876 74.4057 28.3324L74.4057 43.5931C74.7159 43.6378 75.026 43.6601 75.3361 43.6601Z" fill="white"/>
<path d="M93.4766 50.1669C90.6853 50.1669 88.6915 49.4178 87.4953 47.9197C86.299 46.3992 85.7009 44.1856 85.7009 41.2788V31.0826C85.7009 28.1982 86.299 26.0181 87.4953 24.5423C88.6915 23.0666 90.6853 22.3287 93.4766 22.3287C96.2457 22.3287 98.2284 23.0666 99.4247 24.5423C100.621 26.0181 101.219 28.1982 101.219 31.0826V41.2788C101.219 44.1632 100.61 46.3657 99.3914 47.8862C98.1952 49.4067 96.2235 50.1669 93.4766 50.1669ZM93.4766 46.511C94.5621 46.511 95.2931 46.1645 95.6697 45.4713C96.0463 44.7781 96.2346 43.7719 96.2346 42.4527L96.2346 29.9423C96.2346 28.623 96.0463 27.628 95.6697 26.9572C95.3153 26.2864 94.5842 25.951 93.4766 25.951C92.3689 25.951 91.6268 26.2976 91.2502 26.9908C90.8736 27.6616 90.6853 28.6454 90.6853 29.9423L90.6853 42.4527C90.6853 43.7719 90.8736 44.7781 91.2502 45.4713C91.6268 46.1645 92.3689 46.511 93.4766 46.511Z" fill="white"/>
<path d="M104.857 22.6306L112.766 22.6306C117.351 22.6306 119.644 25.202 119.644 30.3448C119.644 35.264 117.24 37.7236 112.433 37.7236H109.742L109.742 49.798L104.857 49.798L104.857 22.6306ZM111.636 34.2354C112.965 34.2354 113.862 33.9559 114.327 33.3969C114.793 32.8155 115.025 31.787 115.025 30.3112C115.025 29.2379 114.948 28.4218 114.793 27.8628C114.637 27.2814 114.316 26.8454 113.829 26.5547C113.364 26.2641 112.633 26.1187 111.636 26.1187L109.742 26.1187L109.742 34.2354H111.636Z" fill="white"/>
<path d="M122.779 22.6306L127.863 22.6306L131.685 41.4465L135.639 22.6306L140.59 22.6306L141.088 49.798L137.433 49.798L137.034 30.9149L133.213 49.798L130.256 49.798L126.368 30.8479L126.002 49.798L122.314 49.798L122.779 22.6306Z" fill="white"/>
<path d="M145.13 22.6306L149.151 22.6306L149.151 39.7695L156.527 22.6306L159.817 22.6306L159.817 49.798L155.73 49.798L155.73 32.3572L148.353 49.798L145.13 49.798L145.13 22.6306Z" fill="white"/>
<path d="M166.641 26.2864L162.355 26.2864V22.6306L175.746 22.6306V26.2864L171.559 26.2864L171.559 49.798L166.641 49.798L166.641 26.2864Z" fill="white"/>
<path d="M178.262 22.6306L183.147 22.6306L183.147 34.0342H184.343C187.134 34.0342 189.205 34.6379 190.557 35.8453C191.93 37.0528 192.617 39.0763 192.617 41.9161C192.617 44.8229 191.908 46.8688 190.49 48.0539C189.073 49.2166 186.957 49.798 184.143 49.798L178.262 49.798L178.262 22.6306ZM184.143 46.444C185.561 46.444 186.569 46.1198 187.167 45.4713C187.765 44.8229 188.065 43.649 188.065 41.9496C188.065 40.4291 187.777 39.3111 187.201 38.5956C186.625 37.8577 185.583 37.4888 184.077 37.4888H183.147L183.147 46.444H184.143Z" fill="white"/>
<path d="M203.833 22.6306L208.718 22.6306L208.718 34.0342H209.715L214.068 22.6306L218.952 22.6306L213.835 35.4764L219.351 49.798H214.4L209.715 37.2875H208.718L208.718 49.798L203.833 49.798L203.833 22.6306Z" fill="white"/>
<path d="M225.765 22.6306L231.015 22.6306L236.398 49.798H231.846L230.783 43.526L226.097 43.526L225.001 49.798L220.382 49.798L225.765 22.6306ZM230.251 40.3732L228.423 28.9696L226.596 40.3732L230.251 40.3732Z" fill="white"/>
<path d="M239.105 22.6306L247.014 22.6306C251.6 22.6306 253.892 25.202 253.892 30.3448C253.892 35.264 251.489 37.7236 246.682 37.7236L243.99 37.7236L243.99 49.798H239.105L239.105 22.6306ZM245.884 34.2354C247.213 34.2354 248.111 33.9559 248.576 33.3969C249.041 32.8155 249.274 31.787 249.274 30.3112C249.274 29.2379 249.196 28.4218 249.041 27.8628C248.886 27.2814 248.565 26.8454 248.077 26.5547C247.612 26.2641 246.881 26.1187 245.884 26.1187L243.99 26.1187L243.99 34.2354L245.884 34.2354Z" fill="white"/>
<path d="M259.32 26.2864L255.034 26.2864V22.6306L268.425 22.6306V26.2864L264.238 26.2864L264.238 49.798L259.32 49.798L259.32 26.2864Z" fill="white"/>
<path d="M270.609 51.106C270.897 51.1284 271.295 51.1396 271.805 51.1396C273.09 51.1396 274.009 50.9271 274.563 50.5023C275.117 50.0998 275.394 49.4179 275.394 48.4564C275.394 48.0539 275.338 47.5396 275.228 46.9135L269.545 22.6306L274.098 22.6306L276.391 34.0006L277.62 41.9161L278.617 34.0006L280.611 22.6306L285.23 22.6306L280.013 47.4166C279.592 49.429 279.149 50.9048 278.683 51.8439C278.24 52.8054 277.52 53.4986 276.524 53.9234C275.527 54.3706 274.031 54.5942 272.038 54.5942C271.417 54.5942 270.941 54.583 270.609 54.5607V51.106Z" fill="white"/>
</svg>
